<svg width="28" height="26" viewBox="0 0 28 26" fill="none" xmlns="http://www.w3.org/2000/svg">
<path d="M14.0001 0C21.7335 0 28.0015 4.88533 28.0015 10.9133C28.0015 16.94 21.7335 21.8253 14.0015 21.8253C13.2316 21.824 12.4626 21.775 11.6988 21.6787L5.82147 25.5227C5.15347 25.876 4.91747 25.8373 5.19213 24.972L6.38146 20.068C2.54146 18.1213 0.00146484 14.748 0.00146484 10.9133C0.00146484 4.88667 6.26813 0 14.0015 0M21.8788 10.7467L23.8388 8.848C23.9519 8.73054 24.015 8.57378 24.0148 8.41073C24.0146 8.24767 23.9511 8.09106 23.8377 7.97388C23.7244 7.8567 23.5699 7.78809 23.407 7.78252C23.244 7.77695 23.0853 7.83484 22.9641 7.944L20.3935 10.432V8.376C20.3935 8.20909 20.3272 8.04902 20.2091 7.93099C20.0911 7.81297 19.931 7.74667 19.7641 7.74667C19.5972 7.74667 19.4371 7.81297 19.3191 7.93099C19.2011 8.04902 19.1348 8.20909 19.1348 8.376V11.7853C19.1126 11.8828 19.1126 11.9839 19.1348 12.0813V14C19.1348 14.1669 19.2011 14.327 19.3191 14.445C19.4371 14.563 19.5972 14.6293 19.7641 14.6293C19.931 14.6293 20.0911 14.563 20.2091 14.445C20.3272 14.327 20.3935 14.1669 20.3935 14V12.1827L20.9628 11.632L22.8668 14.3427C22.9143 14.4103 22.9747 14.468 23.0446 14.5123C23.1144 14.5567 23.1922 14.5868 23.2737 14.601C23.3552 14.6153 23.4387 14.6133 23.5194 14.5953C23.6001 14.5773 23.6765 14.5435 23.7441 14.496C23.8118 14.4485 23.8695 14.3881 23.9138 14.3182C23.9581 14.2484 23.9883 14.1706 24.0025 14.0891C24.0167 14.0076 24.0148 13.9241 23.9968 13.8434C23.9787 13.7627 23.945 13.6863 23.8975 13.6187L21.8788 10.7467ZM17.9348 13.312H15.9881V8.396C15.9807 8.23427 15.9112 8.08164 15.7941 7.96983C15.677 7.85802 15.5214 7.79563 15.3595 7.79563C15.1976 7.79563 15.0419 7.85802 14.9248 7.96983C14.8077 8.08164 14.7382 8.23427 14.7308 8.396V13.9413C14.7308 14.288 15.0108 14.5707 15.3588 14.5707H17.9348C18.1017 14.5707 18.2618 14.5044 18.3798 14.3863C18.4978 14.2683 18.5641 14.1082 18.5641 13.9413C18.5641 13.7744 18.4978 13.6143 18.3798 13.4963C18.2618 13.3783 18.1017 13.312 17.9348 13.312ZM10.1255 11.8573L11.0535 9.58L11.9041 11.856L10.1255 11.8573ZM13.4895 12.5067L13.4921 12.4853C13.4917 12.3268 13.4312 12.1744 13.3228 12.0587L11.9281 8.32533C11.8697 8.14742 11.7583 7.99159 11.6089 7.87866C11.4595 7.76573 11.2792 7.70107 11.0921 7.69333C10.9038 7.69325 10.7199 7.75012 10.5645 7.85649C10.4091 7.96286 10.2895 8.11375 10.2215 8.28933L8.00547 13.7227C7.94234 13.8772 7.9432 14.0505 8.00783 14.2044C8.07247 14.3583 8.1956 14.4802 8.35013 14.5433C8.50466 14.6065 8.67794 14.6056 8.83185 14.541C8.98575 14.4763 9.10768 14.3532 9.1708 14.1987L9.61347 13.1147H12.3735L12.7708 14.1813C12.7979 14.2611 12.8407 14.3345 12.8968 14.3974C12.9528 14.4603 13.0208 14.5113 13.0969 14.5474C13.173 14.5835 13.2556 14.6039 13.3397 14.6075C13.4238 14.6111 13.5078 14.5978 13.5867 14.5684C13.6656 14.5389 13.7378 14.4939 13.799 14.4361C13.8602 14.3782 13.9092 14.3087 13.943 14.2315C13.9768 14.1544 13.9948 14.0713 13.9959 13.9871C13.997 13.9029 13.9812 13.8193 13.9495 13.7413L13.4895 12.5067ZM9.0588 8.40267C9.05915 8.32003 9.04316 8.23815 9.01174 8.16172C8.98032 8.0853 8.93409 8.01584 8.87573 7.95735C8.81736 7.89886 8.748 7.85249 8.67164 7.8209C8.59528 7.78932 8.51343 7.77316 8.4308 7.77333H4.10413C3.93722 7.77333 3.77715 7.83964 3.65913 7.95766C3.5411 8.07568 3.4748 8.23576 3.4748 8.40267C3.4748 8.56958 3.5411 8.72965 3.65913 8.84767C3.77715 8.9657 3.93722 9.032 4.10413 9.032H5.6508V14.0133C5.6508 14.1802 5.7171 14.3403 5.83513 14.4583C5.95315 14.5764 6.11322 14.6427 6.28013 14.6427C6.44704 14.6427 6.60711 14.5764 6.72514 14.4583C6.84316 14.3403 6.90947 14.1802 6.90947 14.0133V9.032H8.42947C8.51221 9.03235 8.5942 9.01632 8.67072 8.98481C8.74723 8.95331 8.81675 8.90697 8.87526 8.84846C8.93377 8.78995 8.98011 8.72043 9.01161 8.64392C9.04311 8.5674 9.05915 8.48541 9.0588 8.40267Z" fill="#333333"/>
</svg>
