<svg width="85" height="85" viewBox="0 0 85 85" fill="none" xmlns="http://www.w3.org/2000/svg">
<circle cx="42.5" cy="42.5" r="41" fill="white" stroke="#E3E5F2" stroke-width="3"/>
<path d="M28.9801 43.7617C29.1674 43.5737 29.3899 43.4246 29.6349 43.3229C29.8799 43.2212 30.1426 43.1688 30.4079 43.1688C30.6732 43.1688 30.9358 43.2212 31.1808 43.3229C31.4258 43.4246 31.6484 43.5737 31.8356 43.7617L40.4843 52.4104V27.719C40.4843 27.1844 40.6967 26.6717 41.0747 26.2937C41.4527 25.9157 41.9654 25.7033 42.5 25.7033C43.0345 25.7033 43.5472 25.9157 43.9252 26.2937C44.3032 26.6717 44.5156 27.1844 44.5156 27.719V52.4104L53.1676 43.7617C53.5463 43.383 54.0599 43.1703 54.5954 43.1703C55.1309 43.1703 55.6445 43.383 56.0231 43.7617C56.4018 44.1403 56.6145 44.6539 56.6145 45.1894C56.6145 45.7249 56.4018 46.2385 56.0231 46.6171L43.9294 58.7109C43.7421 58.8988 43.5196 59.0479 43.2746 59.1496C43.0296 59.2513 42.7669 59.3037 42.5016 59.3037C42.2363 59.3037 41.9737 59.2513 41.7287 59.1496C41.4837 59.0479 41.2612 58.8988 41.0739 58.7109L28.9801 46.6171C28.7922 46.4299 28.6431 46.2074 28.5414 45.9623C28.4397 45.7173 28.3873 45.4547 28.3873 45.1894C28.3873 44.9241 28.4397 44.6614 28.5414 44.4164C28.6431 44.1714 28.7922 43.9489 28.9801 43.7617Z" fill="#514F6E"/>
</svg>
