<svg width="25" height="24" viewBox="0 0 25 24" fill="none" xmlns="http://www.w3.org/2000/svg">
<g id="iconoir:send-solid">
<path id="Vector" fill-rule="evenodd" clip-rule="evenodd" d="M3.79064 3.30897C3.65208 3.25073 3.49922 3.23545 3.35188 3.26514C3.20454 3.29482 3.06952 3.36809 2.96432 3.47544C2.85912 3.58279 2.78861 3.71928 2.76192 3.86719C2.73523 4.0151 2.7536 4.16762 2.81464 4.30497L5.90764 11.25H13.4996C13.6986 11.25 13.8893 11.329 14.03 11.4696C14.1706 11.6103 14.2496 11.8011 14.2496 12C14.2496 12.1989 14.1706 12.3896 14.03 12.5303C13.8893 12.671 13.6986 12.75 13.4996 12.75H5.90764L2.81464 19.695C2.7536 19.8323 2.73523 19.9848 2.76192 20.1328C2.78861 20.2807 2.85912 20.4171 2.96432 20.5245C3.06952 20.6319 3.20454 20.7051 3.35188 20.7348C3.49922 20.7645 3.65208 20.7492 3.79064 20.691L22.7906 12.691C22.9265 12.6336 23.0425 12.5375 23.124 12.4146C23.2056 12.2917 23.2491 12.1475 23.2491 12C23.2491 11.8525 23.2056 11.7083 23.124 11.5854C23.0425 11.4624 22.9265 11.3663 22.7906 11.309L3.79064 3.30897Z" fill="#828282"/>
</g>
</svg>
