<svg width="22" height="22" viewBox="0 0 22 22" fill="none" xmlns="http://www.w3.org/2000/svg">
<path d="M7.27787 2.24926C7.0201 2.50711 6.87529 2.85679 6.87529 3.22139C6.87529 3.58599 7.0201 3.93566 7.27787 4.19351L14.0841 10.9998L7.27787 17.806C7.0274 18.0653 6.88881 18.4127 6.89194 18.7732C6.89508 19.1337 7.03968 19.4786 7.29462 19.7335C7.54956 19.9885 7.89442 20.1331 8.25494 20.1362C8.61546 20.1393 8.96279 20.0007 9.22212 19.7503L17.0005 11.9719C17.2583 11.714 17.4031 11.3644 17.4031 10.9998C17.4031 10.6352 17.2583 10.2855 17.0005 10.0276L9.22212 2.24926C8.96427 1.99149 8.6146 1.84668 8.25 1.84668C7.88539 1.84668 7.53572 1.99149 7.27787 2.24926Z" fill="white"/>
</svg>
