<svg width="46" height="46" viewBox="0 0 46 46" fill="none" xmlns="http://www.w3.org/2000/svg">
<circle cx="23" cy="23" r="22" fill="white" stroke="#E3E5F2" stroke-width="2"/>
<path d="M34.19 11.8099C33.3509 10.9717 32.2134 10.501 31.0275 10.501C29.8415 10.501 28.704 10.9717 27.865 11.8099L12.925 26.7499C12.4169 27.2574 12.0598 27.8962 11.8937 28.5949L10.525 34.3474C10.4879 34.5032 10.4914 34.6659 10.535 34.82C10.5787 34.9741 10.6612 35.1144 10.7745 35.2276C10.8878 35.3408 11.0282 35.423 11.1823 35.4666C11.3365 35.5101 11.4992 35.5134 11.655 35.4761L17.4062 34.1061C18.1053 33.9402 18.7446 33.5831 19.2525 33.0749L34.19 18.1374C35.0281 17.2983 35.4989 16.1608 35.4989 14.9749C35.4989 13.7889 35.0281 12.6514 34.19 11.8124M29.19 13.1374C29.4313 12.8961 29.7177 12.7047 30.033 12.5741C30.3483 12.4435 30.6862 12.3763 31.0275 12.3763C31.3687 12.3763 31.7066 12.4435 32.0219 12.5741C32.3372 12.7047 32.6237 12.8961 32.865 13.1374C33.1063 13.3787 33.2977 13.6651 33.4283 13.9804C33.5589 14.2957 33.6261 14.6336 33.6261 14.9749C33.6261 15.3161 33.5589 15.654 33.4283 15.9693C33.2977 16.2846 33.1063 16.5711 32.865 16.8124L31.75 17.9236L28.075 14.2499L29.19 13.1374ZM26.75 15.5774L30.425 19.2499L17.925 31.7499C17.6625 32.0124 17.3325 32.1961 16.9712 32.2824L12.7012 33.2999L13.7175 29.0299C13.8037 28.6674 13.9887 28.3374 14.2512 28.0749L26.75 15.5774Z" fill="#6F6C90"/>
</svg>
